{
	"asset":{
		"generator":"Khronos glTF Blender I/O v4.2.57",
		"version":"2.0"
	},
	"extensionsUsed":[
		"KHR_materials_specular"
	],
	"scene":0,
	"scenes":[
		{
			"name":"Scene",
			"nodes":[
				0
			]
		}
	],
	"nodes":[
		{
			"mesh":0,
			"name":"Untitled",
			"rotation":[
				0.7071068286895752,
				0,
				0,
				0.7071068286895752
			]
		}
	],
	"materials":[
		{
			"doubleSided":true,
			"extensions":{
				"KHR_materials_specular":{
					"specularFactor":0
				}
			},
			"name":"Steel_-_Satin",
			"pbrMetallicRoughness":{
				"baseColorFactor":[
					0.2891608774662018,
					0.09498205780982971,
					0.6280139088630676,
					1
				],
				"metallicFactor":0
			}
		}
	],
	"meshes":[
		{
			"name":"Untitled",
			"primitives":[
				{
					"attributes":{
						"POSITION":0,
						"NORMAL":1,
						"TEXCOORD_0":2
					},
					"indices":3,
					"material":0
				}
			]
		}
	],
	"accessors":[
		{
			"bufferView":0,
			"componentType":5126,
			"count":1785,
			"max":[
				0.20000000298023224,
				1.2999999523162842,
				0
			],
			"min":[
				-4.300000190734863,
				-0.10000000149011612,
				-2.5
			],
			"type":"VEC3"
		},
		{
			"bufferView":1,
			"componentType":5126,
			"count":1785,
			"type":"VEC3"
		},
		{
			"bufferView":2,
			"componentType":5126,
			"count":1785,
			"type":"VEC2"
		},
		{
			"bufferView":3,
			"componentType":5123,
			"count":4044,
			"type":"SCALAR"
		}
	],
	"bufferViews":[
		{
			"buffer":0,
			"byteLength":21420,
			"byteOffset":0,
			"target":34962
		},
		{
			"buffer":0,
			"byteLength":21420,
			"byteOffset":21420,
			"target":34962
		},
		{
			"buffer":0,
			"byteLength":14280,
			"byteOffset":42840,
			"target":34962
		},
		{
			"buffer":0,
			"byteLength":8088,
			"byteOffset":57120,
			"target":34963
		}
	],
	"buffers":[
		{
			"byteLength":65208,
			"uri":"SmrutiPankha_Model.bin"
		}
	]
}
